<svg xmlns="http://www.w3.org/2000/svg" width="173" height="52" fill="none"><rect width="173" height="52" fill="#F58A07" fill-opacity=".1" rx="26"/><path fill="#F58A07" d="M32.56 26.4c0-1.099.245-2.08.736-2.944a5.312 5.312 0 0 1 2.032-2.032c.864-.49 1.83-.736 2.896-.736 1.248 0 2.341.32 3.28.96.939.64 1.595 1.525 1.968 2.656h-2.576c-.256-.533-.619-.933-1.088-1.2-.459-.267-.992-.4-1.6-.4-.65 0-1.232.155-1.744.464a3.128 3.128 0 0 0-1.184 1.28c-.277.555-.416 1.205-.416 1.952 0 .736.139 1.387.416 1.952a3.24 3.24 0 0 0 1.184 1.296c.512.299 1.093.448 1.744.448.608 0 1.141-.133 1.6-.4.47-.277.832-.683 1.088-1.216h2.576c-.373 1.141-1.03 2.032-1.968 2.672-.928.63-2.021.944-3.28.944-1.067 0-2.032-.24-2.896-.72a5.463 5.463 0 0 1-2.032-2.032c-.49-.864-.736-1.845-.736-2.944Zm15.065-6.24V32h-2.24V20.16h2.24Zm6.15 11.984c-.854 0-1.622-.187-2.305-.56a4.2 4.2 0 0 1-1.616-1.616c-.384-.693-.576-1.493-.576-2.4 0-.907.198-1.707.592-2.4a4.168 4.168 0 0 1 1.648-1.6c.694-.384 1.467-.576 2.32-.576.854 0 1.627.192 2.32.576a4.061 4.061 0 0 1 1.632 1.6c.406.693.608 1.493.608 2.4 0 .907-.208 1.707-.624 2.4a4.252 4.252 0 0 1-1.664 1.616c-.693.373-1.472.56-2.336.56Zm0-1.952c.405 0 .783-.096 1.135-.288a2.19 2.19 0 0 0 .864-.896c.214-.395.32-.875.32-1.44 0-.843-.224-1.488-.672-1.936a2.145 2.145 0 0 0-1.616-.688c-.64 0-1.178.23-1.616.688-.426.448-.64 1.093-.64 1.936s.208 1.493.624 1.952c.427.448.96.672 1.6.672Zm11.179-7.184c1.056 0 1.909.336 2.56 1.008.65.661.976 1.59.976 2.784V32h-2.24v-4.896c0-.704-.177-1.243-.528-1.616-.352-.384-.832-.576-1.44-.576-.62 0-1.11.192-1.472.576-.352.373-.529.912-.529 1.616V32h-2.24v-8.864h2.24v1.104a3.037 3.037 0 0 1 1.136-.896 3.52 3.52 0 0 1 1.537-.336Zm13.906 4.368c0 .32-.022.608-.064.864h-6.48c.053.64.277 1.141.672 1.504.394.363.88.544 1.456.544.832 0 1.424-.357 1.776-1.072h2.416a4.078 4.078 0 0 1-1.472 2.112c-.726.544-1.616.816-2.672.816-.854 0-1.622-.187-2.304-.56a4.122 4.122 0 0 1-1.584-1.616c-.374-.693-.56-1.493-.56-2.4 0-.917.186-1.723.56-2.416a3.908 3.908 0 0 1 1.568-1.6c.672-.373 1.445-.56 2.32-.56.842 0 1.594.181 2.256.544.672.363 1.189.88 1.552 1.552.373.661.56 1.424.56 2.288Zm-2.32-.64c-.011-.576-.219-1.035-.624-1.376-.406-.352-.902-.528-1.488-.528-.555 0-1.024.17-1.408.512-.374.33-.603.795-.688 1.392h4.208Zm10.007-2.32c.288-.405.683-.741 1.184-1.008.512-.277 1.094-.416 1.744-.416a3.835 3.835 0 0 1 3.504 2.16c.363.683.544 1.477.544 2.384 0 .907-.181 1.712-.544 2.416-.352.693-.837 1.232-1.456 1.616a3.755 3.755 0 0 1-2.048.576c-.65 0-1.226-.133-1.728-.4a3.716 3.716 0 0 1-1.2-1.008v5.488h-2.24V23.136h2.24v1.28Zm4.688 3.12c0-.533-.112-.992-.336-1.376a2.189 2.189 0 0 0-.864-.896 2.268 2.268 0 0 0-1.152-.304c-.405 0-.79.107-1.152.32-.352.203-.64.501-.864.896-.213.395-.32.859-.32 1.392 0 .533.107.997.32 1.392.224.395.512.699.864.912.363.203.747.304 1.152.304.416 0 .8-.107 1.152-.32.363-.213.65-.517.864-.912.224-.395.336-.864.336-1.408Zm6.156-3.024a3.17 3.17 0 0 1 1.12-1.104c.47-.267 1.002-.4 1.6-.4v2.352h-.592c-.704 0-1.238.165-1.6.496-.352.33-.528.907-.528 1.728V32h-2.24v-8.864h2.24v1.376Zm8.165 7.632c-.854 0-1.622-.187-2.304-.56a4.194 4.194 0 0 1-1.616-1.616c-.384-.693-.576-1.493-.576-2.4 0-.907.197-1.707.592-2.4a4.162 4.162 0 0 1 1.648-1.6c.693-.384 1.466-.576 2.32-.576.853 0 1.626.192 2.32.576a4.065 4.065 0 0 1 1.632 1.6c.405.693.608 1.493.608 2.4 0 .907-.208 1.707-.624 2.4a4.256 4.256 0 0 1-1.664 1.616c-.694.373-1.472.56-2.336.56Zm0-1.952c.405 0 .784-.096 1.136-.288.362-.203.65-.501.864-.896.213-.395.32-.875.32-1.44 0-.843-.224-1.488-.672-1.936a2.146 2.146 0 0 0-1.616-.688c-.64 0-1.179.23-1.616.688-.427.448-.64 1.093-.64 1.936s.208 1.493.624 1.952c.426.448.96.672 1.6.672Zm7.403-8.112c-.406 0-.742-.123-1.008-.368a1.283 1.283 0 0 1-.384-.944c0-.373.128-.683.384-.928.266-.256.602-.384 1.008-.384.394 0 .72.128.976.384.256.245.384.555.384.928s-.128.688-.384.944c-.256.245-.582.368-.976.368Zm1.104 11.376c0 .981-.246 1.685-.736 2.112-.48.437-1.174.656-2.08.656h-.992V34.32h.64c.341 0 .581-.07.72-.208.138-.128.208-.341.208-.64V23.136h2.24v10.32Zm10.453-6.08c0 .32-.021.608-.064.864h-6.48c.053.64.277 1.141.672 1.504s.88.544 1.456.544c.832 0 1.424-.357 1.776-1.072h2.416a4.08 4.08 0 0 1-1.472 2.112c-.725.544-1.616.816-2.672.816-.853 0-1.621-.187-2.304-.56a4.122 4.122 0 0 1-1.584-1.616c-.373-.693-.56-1.493-.56-2.4 0-.917.187-1.723.56-2.416a3.905 3.905 0 0 1 1.568-1.6c.672-.373 1.445-.56 2.32-.56.843 0 1.595.181 2.256.544.672.363 1.189.88 1.552 1.552.373.661.56 1.424.56 2.288Zm-2.32-.64c-.011-.576-.219-1.035-.624-1.376-.405-.352-.901-.528-1.488-.528-.555 0-1.024.17-1.408.512-.373.33-.603.795-.688 1.392h4.208Zm3.379.832c0-.917.187-1.717.56-2.4a3.936 3.936 0 0 1 1.552-1.6c.661-.384 1.419-.576 2.272-.576 1.099 0 2.005.277 2.72.832.725.544 1.211 1.312 1.456 2.304h-2.416a1.71 1.71 0 0 0-.656-.896c-.299-.224-.672-.336-1.12-.336-.64 0-1.147.235-1.52.704-.373.459-.56 1.115-.56 1.968 0 .843.187 1.499.56 1.968.373.459.88.688 1.52.688.907 0 1.499-.405 1.776-1.216h2.416c-.245.96-.731 1.723-1.456 2.288-.725.565-1.632.848-2.72.848-.853 0-1.611-.187-2.272-.56a4.072 4.072 0 0 1-1.552-1.6c-.373-.693-.56-1.499-.56-2.416Zm12.809-2.592v4.288c0 .299.069.517.208.656.149.128.395.192.736.192h1.04V32h-1.408c-1.888 0-2.832-.917-2.832-2.752v-4.272h-1.056v-1.84h1.056v-2.192h2.256v2.192h1.984v1.84h-1.984Z"/></svg>