<svg xmlns="http://www.w3.org/2000/svg" width="20" height="14" fill="none"><path fill="#fff" fill-rule="evenodd" d="M18.64 1.3c.302.292.518.654.623 1.05.282 1.466.42 2.952.41 4.442a22.688 22.688 0 0 1-.41 4.375 2.28 2.28 0 0 1-.623 1.05 2.51 2.51 0 0 1-1.102.616c-1.53.384-7.648.384-7.648.384s-6.118 0-7.648-.384a2.515 2.515 0 0 1-1.086-.588 2.291 2.291 0 0 1-.639-1.012 22.687 22.687 0 0 1-.41-4.441C.1 5.314.238 3.838.518 2.383c.106-.395.32-.758.624-1.05A2.51 2.51 0 0 1 2.242.717C3.772.333 9.89.333 9.89.333s6.119 0 7.648.35a2.51 2.51 0 0 1 1.102.616Zm-5.637 5.492L7.89 9.517v-5.45l5.113 2.725Z" clip-rule="evenodd"/></svg>